/* XPM */
static char *icon[] = {
/* columns rows colors chars-per-pixel */
"32 32 12 1 ",
"  c #1C1811",
". c #4F4D4A",
"X c #747371",
"o c #939291",
"O c #A1A09F",
"+ c #AEAEAD",
"@ c #BBBBBA",
"# c #D3D3D2",
"$ c #DFDEDE",
"% c #EAEAE9",
"& c #F5F4F4",
"* c white",
/* pixels */
"********************************",
"********************************",
"********************************",
"********************************",
"********************************",
"*********+   *******************",
"*********+   *******************",
"*********+   *******************",
"****                     X******",
"****                     X******",
"****                     X******",
"*********+   *******************",
"*********+   *******************",
"****                     X******",
"****                     X******",
"****                     X******",
"*********+   *******************",
"*********+   *******************",
"*********+   *******************",
"*********+   ********#   @******",
"*********+   ********#   @******",
"*********+   ********#   @******",
"*********+   ********#   @******",
"*********+   @*******O   @******",
"*********+               $******",
"*********&.             .*******",
"**********%X           o%*******",
"********************************",
"********************************",
"********************************",
"********************************",
"********************************"
};
