/* XPM */
static char *icon[] = {
/* columns rows colors chars-per-pixel */
"64 64 15 1 ",
"  c black",
". c gray15",
"X c gray26",
"o c #585858",
"O c gray42",
"+ c gray49",
"@ c gray61",
"# c #AAAAAA",
"$ c gray72",
"% c #C5C5C5",
"& c gray82",
"* c #DDDDDD",
"= c #E9E9E9",
"- c #F4F4F4",
"; c white",
/* pixels */
";;;;;;;;;;;;;;;;;;;;;;;;;;;;;;;;;;;;;;;;;;;;;;;;;;;;;;;;;;;;;;;;",
";;;;;;;;;;;;;;;;;;;;;;;;;;;;;;;;;;;;;;;;;;;;;;;;;;;;;;;;;;;;;;;;",
";;;;;;;;;;;;;;;;;;;;;;;;;;;;;;;;;;;;;;;;;;;;;;;;;;;;;;;;;;;;;;;;",
";;;;;;;;;;;;;;;;;;;;;;;;;;;;;;;;;;;;;;;;;;;;;;;;;;;;;;;;;;;;;;;;",
";;;;;;;;;;;;;;;;;;;;;;;;;;;;;;;;;;;;;;;;;;;;;;;;;;;;;;;;;;;;;;;;",
";;;;;;;;;;;;;;;;;;;;;;;;;;;;;;;;;;;;;;;;;;;;;;;;;;;;;;;;;;;;;;;;",
";;;;;;;;;;;;;;;;;;*&&&&&&&&=;;;;;;;;;;;;;;;;;;;;;;;;;;;;;;;;;;;;",
";;;;;;;;;;;;;;;;;;O        #;;;;;;;;;;;;;;;;;;;;;;;;;;;;;;;;;;;;",
";;;;;;;;;;;;;;;;;;O        #;;;;;;;;;;;;;;;;;;;;;;;;;;;;;;;;;;;;",
";;;;;;;;;;;;;;;;;;O        #;;;;;;;;;;;;;;;;;;;;;;;;;;;;;;;;;;;;",
";;;;;;;;;;;;;;;;;;O        #;;;;;;;;;;;;;;;;;;;;;;;;;;;;;;;;;;;;",
";;;;;;;;;;;;;;;;;;O        #;;;;;;;;;;;;;;;;;;;;;;;;;;;;;;;;;;;;",
";;;;;;;;;;;;;;;;;;O        #;;;;;;;;;;;;;;;;;;;;;;;;;;;;;;;;;;;;",
";;;;;;$OOOOOOOOOOO.        XOOOOOOOOOOOOOOOOOOOOOOOOOOO*;;;;;;;;",
";;;;;;#                                                &;;;;;;;;",
";;;;;;#                                                &;;;;;;;;",
";;;;;;#                                                &;;;;;;;;",
";;;;;;#                                                &;;;;;;;;",
";;;;;;#                                                &;;;;;;;;",
";;;;;;#                                                &;;;;;;;;",
";;;;;;#                                                &;;;;;;;;",
";;;;;;;;;;;;;;;;;;O        #;;;;;;;;;;;;;;;;;;;;;;;;;;;;;;;;;;;;",
";;;;;;;;;;;;;;;;;;O        #;;;;;;;;;;;;;;;;;;;;;;;;;;;;;;;;;;;;",
";;;;;;;;;;;;;;;;;;O        #;;;;;;;;;;;;;;;;;;;;;;;;;;;;;;;;;;;;",
";;;;;;;;;;;;;;;;;;O        #;;;;;;;;;;;;;;;;;;;;;;;;;;;;;;;;;;;;",
";;;;;;&###########X        O###########################=;;;;;;;;",
";;;;;;#                                                &;;;;;;;;",
";;;;;;#                                                &;;;;;;;;",
";;;;;;#                                                &;;;;;;;;",
";;;;;;#                                                &;;;;;;;;",
";;;;;;#                                                &;;;;;;;;",
";;;;;;#                                                &;;;;;;;;",
";;;;;;#                                                &;;;;;;;;",
";;;;;;&###########X        O###########################=;;;;;;;;",
";;;;;;;;;;;;;;;;;;O        #;;;;;;;;;;;;;;;;;;;;;;;;;;;;;;;;;;;;",
";;;;;;;;;;;;;;;;;;O        #;;;;;;;;;;;;;;;;;;;;;;;;;;;;;;;;;;;;",
";;;;;;;;;;;;;;;;;;O        #;;;;;;;;;;;;;;;;;;;;;;;;;;;;;;;;;;;;",
";;;;;;;;;;;;;;;;;;O        #;;;;;;;;;;;;;;;;;;;;;;;;;;;;;;;;;;;;",
";;;;;;;;;;;;;;;;;;O        #;;;;;;;;;;;;;;;;;$########&;;;;;;;;;",
";;;;;;;;;;;;;;;;;;O        #;;;;;;;;;;;;;;;;;O        #;;;;;;;;;",
";;;;;;;;;;;;;;;;;;O        #;;;;;;;;;;;;;;;;;O        #;;;;;;;;;",
";;;;;;;;;;;;;;;;;;O        #;;;;;;;;;;;;;;;;;O        #;;;;;;;;;",
";;;;;;;;;;;;;;;;;;O        #;;;;;;;;;;;;;;;;;O        #;;;;;;;;;",
";;;;;;;;;;;;;;;;;;O        #;;;;;;;;;;;;;;;;;O        #;;;;;;;;;",
";;;;;;;;;;;;;;;;;;O        #;;;;;;;;;;;;;;;;;O        #;;;;;;;;;",
";;;;;;;;;;;;;;;;;;O        #;;;;;;;;;;;;;;;;;O        #;;;;;;;;;",
";;;;;;;;;;;;;;;;;;O        @;;;;;;;;;;;;;;;;;o        #;;;;;;;;;",
";;;;;;;;;;;;;;;;;;O        X-;;;;;;;;;;;;;;;*         #;;;;;;;;;",
";;;;;;;;;;;;;;;;;;O         o*;;;;;;;;;;;;;%.         #;;;;;;;;;",
";;;;;;;;;;;;;;;;;;O                                   #;;;;;;;;;",
";;;;;;;;;;;;;;;;;;O                                   %;;;;;;;;;",
";;;;;;;;;;;;;;;;;;#                                   =;;;;;;;;;",
";;;;;;;;;;;;;;;;;;*                                  X;;;;;;;;;;",
";;;;;;;;;;;;;;;;;;;+                                 $;;;;;;;;;;",
";;;;;;;;;;;;;;;;;;;-o                               O;;;;;;;;;;;",
";;;;;;;;;;;;;;;;;;;;-O                             +-;;;;;;;;;;;",
";;;;;;;;;;;;;;;;;;;;;;$+.                      .O@*;;;;;;;;;;;;;",
";;;;;;;;;;;;;;;;;;;;;;;;;;;;;;;;;;;;;;;;;;;;;;;;;;;;;;;;;;;;;;;;",
";;;;;;;;;;;;;;;;;;;;;;;;;;;;;;;;;;;;;;;;;;;;;;;;;;;;;;;;;;;;;;;;",
";;;;;;;;;;;;;;;;;;;;;;;;;;;;;;;;;;;;;;;;;;;;;;;;;;;;;;;;;;;;;;;;",
";;;;;;;;;;;;;;;;;;;;;;;;;;;;;;;;;;;;;;;;;;;;;;;;;;;;;;;;;;;;;;;;",
";;;;;;;;;;;;;;;;;;;;;;;;;;;;;;;;;;;;;;;;;;;;;;;;;;;;;;;;;;;;;;;;",
";;;;;;;;;;;;;;;;;;;;;;;;;;;;;;;;;;;;;;;;;;;;;;;;;;;;;;;;;;;;;;;;",
";;;;;;;;;;;;;;;;;;;;;;;;;;;;;;;;;;;;;;;;;;;;;;;;;;;;;;;;;;;;;;;;"
};
